<mxfile host="app.diagrams.net" modified="2024-03-15T10:19:13.294Z" agent="Mozilla/5.0 (Windows NT 10.0; Win64; x64) AppleWebKit/537.36 (KHTML, like Gecko) Chrome/122.0.0.0 Safari/537.36" version="24.0.7" etag="Qhl6VryBcu75BNY9rU4V" type="github">
  <diagram name="Страница — 1" id="Z3kTQ0lJGnhua4NJuz_C">
    <mxGraphModel>
      <root>
        <mxCell id="0" />
        <mxCell id="1" parent="0" />
      </root>
    </mxGraphModel>
  </diagram>
</mxfile>
